<?xml version="1.0" encoding="utf-8"?>
<!-- Generator: Adobe Illustrator 20.1.0, SVG Export Plug-In . SVG Version: 6.00 Build 0)  -->
<svg version="1.1" id="Layer_1" xmlns="http://www.w3.org/2000/svg" xmlns:xlink="http://www.w3.org/1999/xlink" x="0px" y="0px"
	 viewBox="0 0 173 56.3" style="enable-background:new 0 0 173 56.3;" xml:space="preserve">

<defs>
  <linearGradient id="ltolGradient" x1="0%" y1="0%" x2="100%" y2="100%">
    <stop offset="0%" stop-color="#0066FF"/>
    <stop offset="100%" stop-color="#7A2BFF"/>
  </linearGradient>
</defs>

<style type="text/css">
	.st0{fill:url(#ltolGradient);}
</style>
<polygon class="st0" points="17.3,5.6 4.4,5.6 4.4,49.3 36.5,49.3 37.9,39.8 17.3,39.8 "/>
<path class="st0" d="M32.7,5.6v9.5h12.5v34.2H58V15.1h5.2c1.1-3.4,2.7-6.5,4.7-9.5H32.7z"/>
<path class="st0" d="M168.7,39.8h-20.6V5.6h-15c4.5,6.8,6.9,14.7,6.6,23c-0.2,7.5-2.5,14.6-6.6,20.7h34.2L168.7,39.8z"/>
<circle class="st0" cx="100.7" cy="28" r="12.1"/>
<path class="st0" d="M125.6,28.3c0.2-6.7-2.2-13.1-6.8-18c-1-1.1-2.7-1.1-3.7-0.1c-1.1,1-1.1,2.7-0.1,3.7c3.6,3.9,5.6,8.9,5.4,14.2
	c-0.2,5.2-2.4,10.1-6.2,13.7c-1.1,1-1.1,2.7-0.1,3.7c0.5,0.6,1.2,0.8,1.9,0.8c0.6,0,1.3-0.2,1.8-0.7
	C122.6,41.1,125.3,34.9,125.6,28.3z"/>
<path class="st0" d="M126.4,3c-1-1.1-2.7-1.1-3.7-0.1s-1.1,2.7-0.1,3.7c5.6,5.9,8.5,13.6,8.3,21.8c-0.2,8.1-3.6,15.6-9.5,21.2
	c-1.1,1-1.1,2.7-0.1,3.7c0.5,0.6,1.2,0.8,1.9,0.8c0.6,0,1.3-0.2,1.8-0.7c6.9-6.5,10.9-15.4,11.2-24.9C136.4,19,133,9.9,126.4,3z"/>
<path class="st0" d="M80.7,27.9c-0.1-5.2,1.8-10.2,5.4-14c1-1.1,1-2.7-0.1-3.7s-2.7-1-3.7,0.1c-4.6,4.8-7,11.1-6.8,17.8
	s3,13,7.8,17.6c0.5,0.5,1.2,0.7,1.8,0.7c0.7,0,1.4-0.3,1.9-0.8c1-1.1,1-2.7-0.1-3.7C83.1,38.1,80.9,33.2,80.7,27.9z"/>
<path class="st0" d="M70.1,28.4c-0.2-8.1,2.7-15.8,8.3-21.7c1-1.1,1-2.7-0.1-3.7s-2.7-1-3.7,0.1c-6.6,6.9-10,16-9.7,25.5
	C65.1,38,69.1,46.8,76,53.3c0.5,0.5,1.2,0.7,1.8,0.7c0.7,0,1.4-0.3,1.9-0.8c1-1.1,0.9-2.7-0.1-3.7C73.7,43.9,70.4,36.4,70.1,28.4z"
	/>
</svg>
